<?xml version="1.0" encoding="UTF-8"?>
<svg id="Calque_1" data-name="Calque 1" xmlns="http://www.w3.org/2000/svg" viewBox="0 0 470.34 469.44">
  <defs>
    <style>
      .cls-1 {
        fill: #ff445a;
      }

      .cls-2 {
        fill: #b22834;
      }

      .cls-3 {
        fill: #ee3547;
      }

      .cls-4 {
        fill: none;
        stroke: #fff;
        stroke-miterlimit: 10;
        stroke-width: 2px;
      }
    </style>
  </defs>
  <polygon class="cls-4" points="34.4 349.67 119.26 434.52 235.17 465.58 351.08 434.52 435.93 349.67 466.99 233.75 435.93 117.84 351.08 32.99 235.17 1.93 119.26 32.99 34.4 117.84 3.35 233.75 34.4 349.67"/>
  <polygon class="cls-1" points="235.17 1.93 150.32 86.78 34.4 117.84 119.26 32.99 235.17 1.93"/>
  <polygon class="cls-4" points="235.17 1.93 150.32 86.78 34.4 117.84 119.26 32.99 235.17 1.93"/>
  <polygon class="cls-1" points="466.99 233.75 435.93 349.67 351.08 434.52 382.14 318.61 466.99 233.75"/>
  <polygon class="cls-4" points="466.99 233.75 435.93 349.67 351.08 434.52 382.14 318.61 466.99 233.75"/>
  <polygon class="cls-1" points="235.17 233.75 266.23 349.67 235.17 465.58 204.11 349.67 235.17 233.75"/>
  <polygon class="cls-4" points="235.17 233.75 266.23 349.67 235.17 465.58 204.11 349.67 235.17 233.75"/>
  <polygon class="cls-1" points="3.35 233.75 88.2 318.61 119.26 434.52 34.4 349.67 3.35 233.75"/>
  <polygon class="cls-4" points="3.35 233.75 88.2 318.61 119.26 434.52 34.4 349.67 3.35 233.75"/>
  <polygon class="cls-1" points="235.17 1.93 351.08 32.99 435.93 117.84 320.02 86.78 235.17 1.93"/>
  <polygon class="cls-4" points="235.17 1.93 351.08 32.99 435.93 117.84 320.02 86.78 235.17 1.93"/>
  <polygon class="cls-3" points="382.14 318.61 351.08 434.52 235.17 465.58 266.23 349.67 382.14 318.61"/>
  <polygon class="cls-4" points="382.14 318.61 351.08 434.52 235.17 465.58 266.23 349.67 382.14 318.61"/>
  <polygon class="cls-3" points="435.93 117.84 466.99 233.75 382.14 318.61 351.08 202.7 435.93 117.84"/>
  <polygon class="cls-4" points="435.93 117.84 466.99 233.75 382.14 318.61 351.08 202.7 435.93 117.84"/>
  <polygon class="cls-3" points="34.4 117.84 119.26 202.7 88.2 318.61 3.35 233.75 34.4 117.84"/>
  <polygon class="cls-4" points="34.4 117.84 119.26 202.7 88.2 318.61 3.35 233.75 34.4 117.84"/>
  <polygon class="cls-3" points="235.17 465.58 119.26 434.52 88.2 318.61 204.11 349.67 235.17 465.58"/>
  <polygon class="cls-4" points="235.17 465.58 119.26 434.52 88.2 318.61 204.11 349.67 235.17 465.58"/>
  <rect class="cls-2" x="175.17" y="26.78" width="120" height="120" transform="translate(7.51 191.71) rotate(-45)"/>
  <rect class="cls-4" x="175.17" y="26.78" width="120" height="120" transform="translate(7.51 191.71) rotate(-45)"/>
  <rect class="cls-2" x="248.65" y="216.18" width="120" height="120" transform="translate(-60.96 89.3) rotate(-15)"/>
  <rect class="cls-4" x="248.65" y="216.18" width="120" height="120" transform="translate(-60.96 89.3) rotate(-15)"/>
  <rect class="cls-2" x="101.68" y="216.18" width="120" height="120" transform="translate(-146.93 360.87) rotate(-75)"/>
  <rect class="cls-4" x="101.68" y="216.18" width="120" height="120" transform="translate(-146.93 360.87) rotate(-75)"/>
  <polygon class="cls-3" points="235.17 171.64 119.26 202.7 34.4 117.84 150.32 86.78 235.17 171.64"/>
  <polygon class="cls-4" points="235.17 171.64 119.26 202.7 34.4 117.84 150.32 86.78 235.17 171.64"/>
  <polygon class="cls-3" points="435.93 117.84 351.08 202.7 235.17 171.64 320.02 86.78 435.93 117.84"/>
  <polygon class="cls-4" points="435.93 117.84 351.08 202.7 235.17 171.64 320.02 86.78 435.93 117.84"/>
  <polygon class="cls-1" points="351.08 202.7 235.17 233.75 119.26 202.7 235.17 171.64 351.08 202.7"/>
  <polygon class="cls-4" points="351.08 202.7 235.17 233.75 119.26 202.7 235.17 171.64 351.08 202.7"/>
</svg>