<?xml version="1.0" encoding="UTF-8"?>
<svg id="Calque_1" data-name="Calque 1" xmlns="http://www.w3.org/2000/svg" viewBox="0 0 470.34 469.44">
  <defs>
    <style>
      .cls-1 {
        fill: #ff445a;
      }

      .cls-2 {
        fill: #b22834;
      }

      .cls-3 {
        fill: #ee3547;
      }

      .cls-4 {
        fill: none;
        stroke: #fff;
        stroke-miterlimit: 10;
        stroke-width: 2px;
      }
    </style>
  </defs>
  <polygon class="cls-4" points="435.93 117.84 351.08 32.99 235.17 1.93 119.26 32.99 34.4 117.84 3.35 233.75 34.4 349.67 119.26 434.52 235.17 465.58 351.08 434.52 435.93 349.67 466.99 233.75 435.93 117.84"/>
  <polygon class="cls-1" points="235.17 465.58 320.02 380.72 435.93 349.67 351.08 434.52 235.17 465.58"/>
  <polygon class="cls-4" points="235.17 465.58 320.02 380.72 435.93 349.67 351.08 434.52 235.17 465.58"/>
  <polygon class="cls-1" points="3.35 233.75 34.4 117.84 119.26 32.99 88.2 148.9 3.35 233.75"/>
  <polygon class="cls-4" points="3.35 233.75 34.4 117.84 119.26 32.99 88.2 148.9 3.35 233.75"/>
  <polygon class="cls-1" points="435.93 349.67 404.87 233.75 435.93 117.84 466.99 233.75 435.93 349.67"/>
  <polygon class="cls-4" points="435.93 349.67 404.87 233.75 435.93 117.84 466.99 233.75 435.93 349.67"/>
  <polygon class="cls-1" points="119.26 434.52 34.4 349.67 3.35 233.75 88.2 318.61 119.26 434.52"/>
  <polygon class="cls-4" points="119.26 434.52 34.4 349.67 3.35 233.75 88.2 318.61 119.26 434.52"/>
  <polygon class="cls-1" points="320.02 148.9 204.11 117.84 119.26 32.99 235.17 64.05 320.02 148.9"/>
  <polygon class="cls-4" points="320.02 148.9 204.11 117.84 119.26 32.99 235.17 64.05 320.02 148.9"/>
  <polygon class="cls-3" points="288.96 264.81 320.02 148.9 435.93 117.84 404.87 233.75 288.96 264.81"/>
  <polygon class="cls-4" points="288.96 264.81 320.02 148.9 435.93 117.84 404.87 233.75 288.96 264.81"/>
  <polygon class="cls-3" points="235.17 465.58 204.11 349.67 288.96 264.81 320.02 380.72 235.17 465.58"/>
  <polygon class="cls-4" points="235.17 465.58 204.11 349.67 288.96 264.81 320.02 380.72 235.17 465.58"/>
  <polygon class="cls-3" points="173.05 233.75 88.2 148.9 119.26 32.99 204.11 117.84 173.05 233.75"/>
  <polygon class="cls-4" points="173.05 233.75 88.2 148.9 119.26 32.99 204.11 117.84 173.05 233.75"/>
  <polygon class="cls-3" points="88.2 318.61 204.11 349.67 235.17 465.58 119.26 434.52 88.2 318.61"/>
  <polygon class="cls-4" points="88.2 318.61 204.11 349.67 235.17 465.58 119.26 434.52 88.2 318.61"/>
  <rect class="cls-2" x="28.2" y="173.75" width="120" height="120" transform="translate(-139.46 130.83) rotate(-45)"/>
  <rect class="cls-4" x="28.2" y="173.75" width="120" height="120" transform="translate(-139.46 130.83) rotate(-45)"/>
  <rect class="cls-2" x="302.45" y="247.24" width="120" height="120" transform="translate(-67.17 104.28) rotate(-15)"/>
  <rect class="cls-4" x="302.45" y="247.24" width="120" height="120" transform="translate(-67.17 104.28) rotate(-15)"/>
  <rect class="cls-2" x="186.54" y="131.33" width="120" height="120" transform="translate(-2.08 379.94) rotate(-75)"/>
  <rect class="cls-4" x="186.54" y="131.33" width="120" height="120" transform="translate(-2.08 379.94) rotate(-75)"/>
  <polygon class="cls-3" points="235.17 64.05 351.08 32.99 435.93 117.84 320.02 148.9 235.17 64.05"/>
  <polygon class="cls-4" points="235.17 64.05 351.08 32.99 435.93 117.84 320.02 148.9 235.17 64.05"/>
  <polygon class="cls-3" points="88.2 318.61 173.05 233.75 288.96 264.81 204.11 349.67 88.2 318.61"/>
  <polygon class="cls-4" points="88.2 318.61 173.05 233.75 288.96 264.81 204.11 349.67 88.2 318.61"/>
  <polygon class="cls-1" points="119.26 32.99 235.17 1.93 351.08 32.99 235.17 64.05 119.26 32.99"/>
  <polygon class="cls-4" points="119.26 32.99 235.17 1.93 351.08 32.99 235.17 64.05 119.26 32.99"/>
</svg>