<?xml version="1.0" encoding="UTF-8"?>
<svg id="Calque_1" data-name="Calque 1" xmlns="http://www.w3.org/2000/svg" viewBox="0 0 467.51 468.54">
  <defs>
    <style>
      .cls-1 {
        fill: #ff445a;
      }

      .cls-2 {
        fill: #b22834;
      }

      .cls-3 {
        fill: #ee3547;
      }

      .cls-4 {
        fill: none;
        stroke: #fff;
        stroke-miterlimit: 10;
        stroke-width: 2px;
      }
    </style>
  </defs>
  <g>
    <polygon class="cls-1" points="233.75 232.86 318.61 148 434.52 116.95 349.67 201.8 233.75 232.86"/>
    <polygon class="cls-1" points="349.67 433.62 380.72 317.71 465.58 232.86 434.52 348.77 349.67 433.62"/>
    <polygon class="cls-1" points="233.75 464.68 202.7 348.77 233.75 232.86 264.81 348.77 233.75 464.68"/>
    <polygon class="cls-1" points="117.84 433.62 32.99 348.77 1.93 232.86 86.78 317.71 117.84 433.62"/>
    <polygon class="cls-1" points="233.75 232.86 117.84 201.8 32.99 116.95 148.9 148 233.75 232.86"/>
    <polygon class="cls-3" points="233.75 464.68 264.81 348.77 380.72 317.71 349.67 433.62 233.75 464.68"/>
    <polygon class="cls-3" points="380.72 317.71 349.67 201.8 434.52 116.95 465.58 232.86 380.72 317.71"/>
    <polygon class="cls-3" points="86.78 317.71 1.93 232.86 32.99 116.95 117.84 201.8 86.78 317.71"/>
    <polygon class="cls-3" points="86.78 317.71 202.7 348.77 233.75 464.68 117.84 433.62 86.78 317.71"/>
    <rect class="cls-2" x="173.75" y="88" width="120" height="120" transform="translate(-36.19 208.64) rotate(-45)"/>
    <rect class="cls-2" x="247.24" y="215.28" width="120" height="120" transform="translate(-60.78 88.9) rotate(-15)"/>
    <rect class="cls-2" x="100.27" y="215.28" width="120" height="120" transform="translate(-147.12 358.84) rotate(-75)"/>
    <polygon class="cls-3" points="233.75 63.15 349.67 32.09 434.52 116.95 318.61 148 233.75 63.15"/>
    <polygon class="cls-3" points="32.99 116.95 117.84 32.09 233.75 63.15 148.9 148 32.99 116.95"/>
    <polygon class="cls-1" points="117.84 32.09 233.75 1.04 349.67 32.09 233.75 63.15 117.84 32.09"/>
  </g>
  <polygon class="cls-4" points="434.52 116.95 349.67 32.09 233.75 1.04 117.84 32.09 32.99 116.95 1.93 232.86 32.99 348.77 117.84 433.62 233.75 464.68 349.67 433.62 434.52 348.77 465.58 232.86 434.52 116.95"/>
  <polygon class="cls-4" points="233.75 232.86 318.61 148 434.52 116.95 349.67 201.8 233.75 232.86"/>
  <polygon class="cls-4" points="349.67 433.62 380.72 317.71 465.58 232.86 434.52 348.77 349.67 433.62"/>
  <polygon class="cls-4" points="233.75 464.68 202.7 348.77 233.75 232.86 264.81 348.77 233.75 464.68"/>
  <polygon class="cls-4" points="117.84 433.62 32.99 348.77 1.93 232.86 86.78 317.71 117.84 433.62"/>
  <polygon class="cls-4" points="233.75 232.86 117.84 201.8 32.99 116.95 148.9 148 233.75 232.86"/>
  <polygon class="cls-4" points="233.75 464.68 264.81 348.77 380.72 317.71 349.67 433.62 233.75 464.68"/>
  <polygon class="cls-4" points="380.72 317.71 349.67 201.8 434.52 116.95 465.58 232.86 380.72 317.71"/>
  <polygon class="cls-4" points="86.78 317.71 1.93 232.86 32.99 116.95 117.84 201.8 86.78 317.71"/>
  <polygon class="cls-4" points="86.78 317.71 202.7 348.77 233.75 464.68 117.84 433.62 86.78 317.71"/>
  <rect class="cls-4" x="173.75" y="88" width="120" height="120" transform="translate(-36.19 208.64) rotate(-45)"/>
  <rect class="cls-4" x="247.24" y="215.28" width="120" height="120" transform="translate(-60.78 88.9) rotate(-15)"/>
  <rect class="cls-4" x="100.27" y="215.28" width="120" height="120" transform="translate(-147.12 358.84) rotate(-75)"/>
  <polygon class="cls-4" points="233.75 63.15 349.67 32.09 434.52 116.95 318.61 148 233.75 63.15"/>
  <polygon class="cls-4" points="32.99 116.95 117.84 32.09 233.75 63.15 148.9 148 32.99 116.95"/>
  <polygon class="cls-4" points="117.84 32.09 233.75 1.04 349.67 32.09 233.75 63.15 117.84 32.09"/>
</svg>