<?xml version="1.0" encoding="UTF-8"?>
<svg id="Calque_1" data-name="Calque 1" xmlns="http://www.w3.org/2000/svg" viewBox="0 0 470.34 469.44">
  <defs>
    <style>
      .cls-1 {
        fill: #ff445a;
      }

      .cls-2 {
        fill: #b22834;
      }

      .cls-3 {
        fill: #ee3547;
      }

      .cls-4 {
        fill: none;
        stroke: #fff;
        stroke-miterlimit: 10;
        stroke-width: 2px;
      }
    </style>
  </defs>
  <polygon class="cls-4" points="34.4 117.84 119.26 32.99 235.17 1.93 351.08 32.99 435.93 117.84 466.99 233.75 435.93 349.67 351.08 434.52 235.17 465.58 119.26 434.52 34.4 349.67 3.35 233.75 34.4 117.84"/>
  <polygon class="cls-1" points="235.17 465.58 150.32 380.72 34.4 349.67 119.26 434.52 235.17 465.58"/>
  <polygon class="cls-4" points="235.17 465.58 150.32 380.72 34.4 349.67 119.26 434.52 235.17 465.58"/>
  <polygon class="cls-1" points="466.99 233.75 435.93 117.84 351.08 32.99 382.14 148.9 466.99 233.75"/>
  <polygon class="cls-4" points="466.99 233.75 435.93 117.84 351.08 32.99 382.14 148.9 466.99 233.75"/>
  <polygon class="cls-1" points="235.17 295.87 266.23 179.96 235.17 64.05 204.11 179.96 235.17 295.87"/>
  <polygon class="cls-4" points="235.17 295.87 266.23 179.96 235.17 64.05 204.11 179.96 235.17 295.87"/>
  <polygon class="cls-1" points="3.35 233.75 88.2 148.9 119.26 32.99 34.4 117.84 3.35 233.75"/>
  <polygon class="cls-4" points="3.35 233.75 88.2 148.9 119.26 32.99 34.4 117.84 3.35 233.75"/>
  <polygon class="cls-1" points="235.17 465.58 351.08 434.52 435.93 349.67 320.02 380.72 235.17 465.58"/>
  <polygon class="cls-4" points="235.17 465.58 351.08 434.52 435.93 349.67 320.02 380.72 235.17 465.58"/>
  <polygon class="cls-3" points="150.32 380.72 119.26 264.81 3.35 233.75 34.4 349.67 150.32 380.72"/>
  <polygon class="cls-4" points="150.32 380.72 119.26 264.81 3.35 233.75 34.4 349.67 150.32 380.72"/>
  <polygon class="cls-3" points="435.93 349.67 466.99 233.75 382.14 148.9 351.08 264.81 435.93 349.67"/>
  <polygon class="cls-4" points="435.93 349.67 466.99 233.75 382.14 148.9 351.08 264.81 435.93 349.67"/>
  <polygon class="cls-3" points="150.32 380.72 235.17 295.87 204.11 179.96 119.26 264.81 150.32 380.72"/>
  <polygon class="cls-4" points="150.32 380.72 235.17 295.87 204.11 179.96 119.26 264.81 150.32 380.72"/>
  <polygon class="cls-3" points="382.14 148.9 266.23 179.96 235.17 295.87 351.08 264.81 382.14 148.9"/>
  <polygon class="cls-4" points="382.14 148.9 266.23 179.96 235.17 295.87 351.08 264.81 382.14 148.9"/>
  <rect class="cls-2" x="175.17" y="320.72" width="120" height="120" transform="translate(-200.33 277.8) rotate(-45)"/>
  <rect class="cls-4" x="175.17" y="320.72" width="120" height="120" transform="translate(-200.33 277.8) rotate(-45)"/>
  <rect class="cls-2" x="101.68" y="46.47" width="120" height="120" transform="translate(16.99 235.09) rotate(-75)"/>
  <rect class="cls-4" x="101.68" y="46.47" width="120" height="120" transform="translate(16.99 235.09) rotate(-75)"/>
  <rect class="cls-2" x="248.65" y="46.47" width="120" height="120" transform="translate(-17.04 83.51) rotate(-15)"/>
  <rect class="cls-4" x="248.65" y="46.47" width="120" height="120" transform="translate(-17.04 83.51) rotate(-15)"/>
  <polygon class="cls-3" points="204.11 179.96 88.2 148.9 3.35 233.75 119.26 264.81 204.11 179.96"/>
  <polygon class="cls-4" points="204.11 179.96 88.2 148.9 3.35 233.75 119.26 264.81 204.11 179.96"/>
  <polygon class="cls-3" points="435.93 349.67 351.08 264.81 235.17 295.87 320.02 380.72 435.93 349.67"/>
  <polygon class="cls-4" points="435.93 349.67 351.08 264.81 235.17 295.87 320.02 380.72 435.93 349.67"/>
  <polygon class="cls-1" points="351.08 32.99 235.17 1.93 119.26 32.99 235.17 64.05 351.08 32.99"/>
  <polygon class="cls-4" points="351.08 32.99 235.17 1.93 119.26 32.99 235.17 64.05 351.08 32.99"/>
</svg>